<svg xmlns="http://www.w3.org/2000/svg" viewBox="0 0 720 120" role="img" aria-label="Filedeck logo — horizontal white">
  <title>Filedeck Logo — Horizontal White</title>
  <!-- Icon -->
  <svg x="0" y="0" width="120" height="120" viewBox="-250 -250 840 840">
    <g transform="translate(0 -150) rotate(45 170 170)">
      <polygon points="210,160 160,160 160,270 70,270 0,0 270,70 270,160" fill="#ffffff" stroke="#ffffff" stroke-width="6" paint-order="stroke"/>
      <rect x="170" y="170" width="100" height="100" fill="#ebebeb" stroke="#ebebeb" stroke-width="6" paint-order="stroke"/>
    </g>
    <g transform="translate(0 150) rotate(225 170 170)">
      <polygon points="210,160 160,160 160,270 70,270 0,0 270,70 270,160" fill="#ffffff" stroke="#ffffff" stroke-width="6" paint-order="stroke"/>
      <rect x="170" y="170" width="100" height="100" fill="#ebebeb" stroke="#ebebeb" stroke-width="6" paint-order="stroke"/>
    </g>
    <g transform="translate(150 0) rotate(135 170 170)">
      <polygon points="210,160 160,160 160,270 70,270 0,0 270,70 270,160" fill="#ffffff" stroke="#ffffff" stroke-width="6" paint-order="stroke"/>
      <rect x="170" y="170" width="100" height="100" fill="#ebebeb" stroke="#ebebeb" stroke-width="6" paint-order="stroke"/>
    </g>
    <g transform="translate(-150 0) rotate(315 170 170)">
      <polygon points="210,160 160,160 160,270 70,270 0,0 270,70 270,160" fill="#ffffff" stroke="#ffffff" stroke-width="6" paint-order="stroke"/>
      <rect x="170" y="170" width="100" height="100" fill="#ebebeb" stroke="#ebebeb" stroke-width="6" paint-order="stroke"/>
    </g>
  </svg>
  <text
    x="144"
    y="76"
    font-family="Montserrat, Arial, sans-serif"
    font-weight="700"
    font-size="64"
    letter-spacing="25"
    fill="#ffffff"
  >Filedeck</text>
</svg>
